<svg xmlns="http://www.w3.org/2000/svg" width="334.9" height="171" viewBox="0 0 334.9 171">
  <defs>
    <style>
      .cls-1, .cls-5, .cls-6 {
        fill: #83c5f1;
      }

      .cls-1 {
        mix-blend-mode: multiply;
      }

      .cls-1, .cls-7 {
        isolation: isolate;
      }

      .cls-2, .cls-4 {
        fill: #2b6f9a;
      }

      .cls-2, .cls-5 {
        font-size: 129px;
      }

      .cls-2, .cls-5, .cls-6 {
        font-family: SegoeUI, Segoe UI;
      }

      .cls-3 {
        fill: #2b6e99;
      }

      .cls-3, .cls-6 {
        font-size: 50px;
      }

      .cls-7 {
        fill: rgba(0,0,0,0);
        stroke: #5cdb69;
        mix-blend-mode: overlay;
      }
    </style>
  </defs>
  <g id="Group_1" data-name="Group 1" transform="translate(-32 -210.5)">
    <g id="Component_1_1" data-name="Component 1 – 1" transform="translate(32 210.5)">
      <path id="Path_3" data-name="Path 3" class="cls-1" d="M47,0H196.446C222.4,0,214,20.479,214,45.741v1.946c0,25.262,14.041,45.741-11.917,45.741H47c-25.957,0-47-20.479-47-45.741V45.741C0,20.479,21.043,0,47,0Z" transform="translate(0 47.5)"/>
      <text id="Re" class="cls-2" transform="translate(23.1 139)"><tspan x="0" y="0">R</tspan><tspan class="cls-3" y="0">e</tspan></text>
      <ellipse id="Ellipse_1" data-name="Ellipse 1" class="cls-4" cx="48" cy="46.5" rx="48" ry="46.5" transform="translate(133.1 47.813)"/>
      <path id="Path_1" data-name="Path 1" class="cls-4" d="M26.62,0h109.3C165.123,0,188.8,20.819,188.8,46.5S165.123,93,135.915,93H26.62C-2.587,93,.007,72.181.007,46.5S-2.587,0,26.62,0Z" transform="translate(146.1 47.813)"/>
      <text id="G" class="cls-5" transform="translate(121.1 139)"><tspan x="0" y="0">G</tspan></text>
      <text id="roup" class="cls-6" transform="translate(255.1 132.768)"><tspan x="-52.185" y="0">roup</tspan></text>
      <path id="Union_19" data-name="Union 19" class="cls-7" d="M318.417,93h0Zm-21.227,0h0Zm-21.229,0h0Zm-21.227,0h0Zm-21.227,0h0Zm-21.229,0h0ZM191.05,93h0Zm-21.227,0h0Zm-21.229,0h0Zm-21.227,0h0Zm-21.227,0h0ZM84.911,93h0ZM63.683,93h0ZM42.456,93h0ZM21.227,93h0ZM0,93H0ZM318.417,82.371h0Zm0,0h0Zm-21.227,0h0Zm0,0h0Zm-21.229,0h0Zm0,0h0Zm-21.227,0h0Zm0,0h0Zm-21.227,0h0Zm0,0h0Zm-21.229,0h0Zm0,0h0Zm-21.227,0h0Zm0,0h0Zm-21.227,0h0Zm0,0h0Zm-21.229,0h0Zm0,0h0Zm-21.227,0h0Zm0,0h0Zm-21.227,0h0Zm0,0h0Zm-21.229,0h0Zm0,0h0Zm-21.227,0h0Zm0,0h0Zm-21.227,0h0Zm0,0h0Zm-21.229,0h0Zm0,0h0ZM0,82.371H0Zm0,0H0ZM318.417,72.185h0Zm-21.227,0h0Zm-21.229,0h0Zm-21.227,0h0Zm-21.227,0h0Zm-21.229,0h0Zm-21.227,0h0Zm-21.227,0h0Zm-21.229,0h0Zm-21.227,0h0Zm-21.227,0h0Zm-21.229,0h0Zm-21.227,0h0Zm-21.227,0h0Zm-21.229,0h0ZM0,72.185H0ZM318.417,61.557h0Zm0,0h0Zm-21.227,0h0Zm0,0h0Zm-21.229,0h0Zm0,0h0Zm-21.227,0h0Zm0,0h0Zm-21.227,0h0Zm0,0h0Zm-21.229,0h0Zm0,0h0Zm-21.227,0h0Zm0,0h0Zm-21.227,0h0Zm0,0h0Zm-21.229,0h0Zm0,0h0Zm-21.227,0h0Zm0,0h0Zm-21.227,0h0Zm0,0h0Zm-21.229,0h0Zm0,0h0Zm-21.227,0h0Zm0,0h0Zm-21.227,0h0Zm0,0h0Zm-21.229,0h0Zm0,0h0ZM0,61.557H0Zm0,0H0Zm318.417-9.743h0Zm-21.227,0h0Zm-21.229,0h0Zm-21.227,0h0Zm-21.227,0h0Zm-21.229,0h0Zm-21.227,0h0Zm-21.227,0h0Zm-21.229,0h0Zm-21.227,0h0Zm-21.227,0h0Zm-21.229,0h0Zm-21.227,0h0Zm-21.227,0h0Zm-21.229,0h0ZM0,51.814H0ZM318.417,41.186h0Zm0,0h0Zm-21.227,0h0Zm0,0h0Zm-21.229,0h0Zm0,0h0Zm-21.227,0h0Zm0,0h0Zm-21.227,0h0Zm0,0h0Zm-21.229,0h0Zm0,0h0Zm-21.227,0h0Zm0,0h0Zm-21.227,0h0Zm0,0h0Zm-21.229,0h0Zm0,0h0Zm-21.227,0h0Zm0,0h0Zm-21.227,0h0Zm0,0h0Zm-21.229,0h0Zm0,0h0Zm-21.227,0h0Zm0,0h0Zm-21.227,0h0Zm0,0h0Zm-21.229,0h0Zm0,0h0ZM0,41.186H0Zm0,0H0Zm318.417-9.743h0Zm-21.227,0h0Zm-21.229,0h0Zm-21.227,0h0Zm-21.227,0h0Zm-21.229,0h0Zm-21.227,0h0Zm-21.227,0h0Zm-21.229,0h0Zm-21.227,0h0Zm-21.227,0h0Zm-21.229,0h0Zm-21.227,0h0Zm-21.227,0h0Zm-21.229,0h0ZM0,31.442H0ZM318.417,20.814h0Zm0,0h0Zm-21.227,0h0Zm0,0h0Zm-21.229,0h0Zm0,0h0Zm-21.227,0h0Zm0,0h0Zm-21.227,0h0Zm0,0h0Zm-21.229,0h0Zm0,0h0Zm-21.227,0h0Zm0,0h0Zm-21.227,0h0Zm0,0h0Zm-21.229,0h0Zm0,0h0Zm-21.227,0h0Zm0,0h0Zm-21.227,0h0Zm0,0h0Zm-21.229,0h0Zm0,0h0Zm-21.227,0h0Zm0,0h0Zm-21.227,0h0Zm0,0h0Zm-21.229,0h0Zm0,0h0ZM0,20.814H0Zm0,0H0ZM318.417,10.628h0Zm-21.227,0h0Zm-21.229,0h0Zm-21.227,0h0Zm-21.227,0h0Zm-21.229,0h0Zm-21.227,0h0Zm-21.227,0h0Zm-21.229,0h0Zm-21.227,0h0Zm-21.227,0h0Zm-21.229,0h0Zm-21.227,0h0Zm-21.227,0h0Zm-21.229,0h0ZM0,10.628H0ZM318.417,0h0Zm0,0h0ZM297.189,0h0Zm0,0h0ZM275.961,0h0Zm0,0h0ZM254.733,0h0Zm0,0h0ZM233.506,0h0Zm0,0h0ZM212.277,0h0Zm0,0h0ZM191.05,0h0Zm0,0h0ZM169.823,0h0Zm0,0h0ZM148.594,0h0Zm0,0h0ZM127.367,0h0Zm0,0h0ZM106.139,0h0Zm0,0h0ZM84.911,0h0Zm0,0h0ZM63.683,0h0Zm0,0h0ZM42.456,0h0Zm0,0h0ZM21.227,0h0Zm0,0h0ZM0,0H0ZM0,0H0Z" transform="translate(4.1 47.813)"/>
    </g>
  </g>
</svg>
